<?xml version="1.0" encoding="UTF-8" standalone="no"?>
<!-- Generator: Gravit.io -->
<svg xmlns="http://www.w3.org/2000/svg" xmlns:xlink="http://www.w3.org/1999/xlink" style="isolation:isolate" viewBox="0 0 100 100" width="100" height="100"><defs><clipPath id="_clipPath_UVsTMxt7SxmJwUSYfgBfr7oIvatLRq2m"><rect width="100" height="100"/></clipPath></defs><g clip-path="url(#_clipPath_UVsTMxt7SxmJwUSYfgBfr7oIvatLRq2m)"><g style="isolation:isolate" id="Moon"><path d=" M 0 50 C 0 22.404 22.404 0 50 0 C 77.596 0 100 22.404 100 50 C 100 77.596 77.596 100 50 100 C 22.404 100 0 77.596 0 50 Z " fill="rgb(209,209,209)"/><path d=" M 38.667 44.667 C 38.667 35.468 46.135 28 55.333 28 C 64.532 28 72 35.468 72 44.667 C 72 53.865 64.532 61.333 55.333 61.333 C 46.135 61.333 38.667 53.865 38.667 44.667 Z " fill="rgb(172,169,169)"/><path d="M 28.132 44 L 62.534 44 C 65.367 44 67.667 46.091 67.667 48.667 L 67.667 48.667 C 67.667 51.242 65.367 53.333 62.534 53.333 L 28.132 53.333 C 25.3 53.333 23 51.242 23 48.667 L 23 48.667 C 23 46.091 25.3 44 28.132 44 Z" style="stroke:none;fill:#ACA9A9;stroke-miterlimit:10;"/><path d="M 33.608 28 L 75.725 28 C 78.82 28 81.333 30.091 81.333 32.667 L 81.333 32.667 C 81.333 35.242 78.82 37.333 75.725 37.333 L 33.608 37.333 C 30.513 37.333 28 35.242 28 32.667 L 28 32.667 C 28 30.091 30.513 28 33.608 28 Z" style="stroke:none;fill:#ACA9A9;stroke-miterlimit:10;"/><path d=" M 48.333 74.333 C 48.333 73.413 49.08 72.667 50 72.667 C 50.92 72.667 51.667 73.413 51.667 74.333 C 51.667 75.253 50.92 76 50 76 C 49.08 76 48.333 75.253 48.333 74.333 Z " fill="rgb(172,169,169)"/><path d="M 24.654 18.667 L 62.013 18.667 C 64.949 18.667 67.333 20.758 67.333 23.333 L 67.333 23.333 C 67.333 25.909 64.949 28 62.013 28 L 24.654 28 C 21.717 28 19.333 25.909 19.333 23.333 L 19.333 23.333 C 19.333 20.758 21.717 18.667 24.654 18.667 Z" style="stroke:none;fill:#ACA9A9;stroke-miterlimit:10;"/><path d=" M 53.333 79.333 C 53.333 77.494 54.827 76 56.667 76 C 58.506 76 60 77.494 60 79.333 C 60 81.173 58.506 82.667 56.667 82.667 C 54.827 82.667 53.333 81.173 53.333 79.333 Z " fill="rgb(172,169,169)"/><path d=" M 71.667 57.667 C 71.667 56.747 72.413 56 73.333 56 C 74.253 56 75 56.747 75 57.667 C 75 58.587 74.253 59.333 73.333 59.333 C 72.413 59.333 71.667 58.587 71.667 57.667 Z " fill="rgb(172,169,169)"/><path d=" M 8.333 37.333 C 8.333 35.126 10.126 33.333 12.333 33.333 C 14.541 33.333 16.333 35.126 16.333 37.333 C 16.333 39.541 14.541 41.333 12.333 41.333 C 10.126 41.333 8.333 39.541 8.333 37.333 Z " fill="rgb(172,169,169)"/><path d=" M 93.333 45 C 93.333 44.448 93.781 44 94.333 44 C 94.885 44 95.333 44.448 95.333 45 C 95.333 45.552 94.885 46 94.333 46 C 93.781 46 93.333 45.552 93.333 45 Z " fill="rgb(172,169,169)"/><path d=" M 73.333 65 C 73.333 61.872 75.872 59.333 79 59.333 C 82.128 59.333 84.667 61.872 84.667 65 C 84.667 68.128 82.128 70.667 79 70.667 C 75.872 70.667 73.333 68.128 73.333 65 Z " fill="rgb(172,169,169)"/><path d=" M 69 10.333 C 69 9.413 69.747 8.667 70.667 8.667 C 71.587 8.667 72.333 9.413 72.333 10.333 C 72.333 11.253 71.587 12 70.667 12 C 69.747 12 69 11.253 69 10.333 Z " fill="rgb(172,169,169)"/><path d=" M 19.333 50.333 C 19.333 49.413 20.08 48.667 21 48.667 C 21.92 48.667 22.667 49.413 22.667 50.333 C 22.667 51.253 21.92 52 21 52 C 20.08 52 19.333 51.253 19.333 50.333 Z " fill="rgb(172,169,169)"/><path d=" M 15.333 54.333 C 15.333 53.413 16.08 52.667 17 52.667 C 17.92 52.667 18.667 53.413 18.667 54.333 C 18.667 55.253 17.92 56 17 56 C 16.08 56 15.333 55.253 15.333 54.333 Z " fill="rgb(172,169,169)"/><path d=" M 38.667 8.667 C 38.667 6.827 40.16 5.333 42 5.333 C 43.84 5.333 45.333 6.827 45.333 8.667 C 45.333 10.506 43.84 12 42 12 C 40.16 12 38.667 10.506 38.667 8.667 Z " fill="rgb(172,169,169)"/><path d=" M 12 67.333 C 12 62.918 15.585 59.333 20 59.333 C 24.415 59.333 28 62.918 28 67.333 C 28 71.749 24.415 75.333 20 75.333 C 15.585 75.333 12 71.749 12 67.333 Z " fill="rgb(172,169,169)"/><path d=" M 40 86 C 40 82.321 42.987 79.333 46.667 79.333 C 50.346 79.333 53.333 82.321 53.333 86 C 53.333 89.679 50.346 92.667 46.667 92.667 C 42.987 92.667 40 89.679 40 86 Z " fill="rgb(172,169,169)"/><path d=" M 40 86 C 40 82.321 42.987 79.333 46.667 79.333 C 50.346 79.333 53.333 82.321 53.333 86 C 53.333 89.679 50.346 92.667 46.667 92.667 C 42.987 92.667 40 89.679 40 86 Z " fill="rgb(172,169,169)"/></g></g></svg>