<?xml version="1.0" encoding="UTF-8" standalone="no"?>
<!-- Generator: Gravit.io -->
<svg xmlns="http://www.w3.org/2000/svg" xmlns:xlink="http://www.w3.org/1999/xlink" style="isolation:isolate" viewBox="0 0 100 100" width="100" height="100"><defs><clipPath id="_clipPath_XaEZksgT8rymkW6MUjks0w7mdA4qQ6Gr"><rect width="100" height="100"/></clipPath></defs><g clip-path="url(#_clipPath_XaEZksgT8rymkW6MUjks0w7mdA4qQ6Gr)"><g style="isolation:isolate" id="Sun"><path d=" M 0 50 C 0 22.404 22.404 0 50 0 C 77.596 0 100 22.404 100 50 C 100 77.596 77.596 100 50 100 C 22.404 100 0 77.596 0 50 Z " fill="rgb(245,198,56)"/><path d=" M 10 50 C 10 27.923 27.923 10 50 10 C 72.077 10 90 27.923 90 50 C 90 72.077 72.077 90 50 90 C 27.923 90 10 72.077 10 50 Z " fill="rgb(245,217,91)"/><path d=" M 16.667 50 C 16.667 31.603 31.603 16.667 50 16.667 C 68.397 16.667 83.333 31.603 83.333 50 C 83.333 68.397 68.397 83.333 50 83.333 C 31.603 83.333 16.667 68.397 16.667 50 Z " fill="rgb(246,224,123)"/></g></g></svg>